<?xml version="1.0" encoding="UTF-8"?>
<svg xmlns="http://www.w3.org/2000/svg"
    xmlns:xlink="http://www.w3.org/1999/xlink" width="0" height="0">
    <!-- html -->
    <symbol id="html5"
        xmlns="http://www.w3.org/2000/svg" viewBox="0 0 452 520">
        <path fill="#e34f26" d="M41 460L0 0h451l-41 460-185 52" />
        <path fill="#ef652a" d="M226 472l149-41 35-394H226" />
        <path fill="#ecedee" d="M226 208h-75l-5-58h80V94H84l15 171h127zm0 147l-64-17-4-45h-56l7 89 117 32z"/>
        <path fill="#fff" d="M226 265h69l-7 73-62 17v59l115-32 16-174H226zm0-171v56h136l5-56z"/>
    </symbol>
    <!-- css -->
    <symbol id="css3"
        xmlns="http://www.w3.org/2000/svg" viewBox="0 0 1000 1000">
        <path fill="#639" d="M0 0h840a160 160 0 0 1 160 160v680a160 160 0 0 1-160 160H160A160 160 0 0 1 0 840V0Z"/>
        <path fill="#fff" d="M816.54 919.9c-32.39 0-57.16-9.42-74.5-28.35-17.15-19.03-26.08-46.18-26.88-81.64h69.8c.4 31.36 11.42 47.08 33.08 47.08 11.04 0 18.86-3.5 23.37-10.42 4.41-6.9 6.72-17.93 6.72-33.05 0-12.02-3.01-22.04-8.83-29.95a73.2 73.2 0 0 0-29.48-21.14L783.95 750c-23.06-11.02-39.81-24.04-50.14-39.27-10.03-15.13-15.04-36.36-15.04-63.5 0-30.36 8.83-55 26.37-73.94 18.05-18.93 42.62-28.34 74-28.34 30.3 0 53.76 9.31 70.3 27.84 16.85 18.64 25.67 45.28 26.38 80.14h-67.19c.4-11.4-1.9-22.72-6.72-33.06-3.8-7.6-11.23-11.41-22.26-11.41-19.65 0-29.48 11.71-29.48 35.05 0 11.83 2.4 21.04 7.22 28.05A65.18 65.18 0 0 0 822.76 689l24.77 10.92c25.57 11.72 44.02 26.05 55.35 43.38 11.43 17.23 17.05 40.27 17.05 69.12 0 34.56-9.03 61.1-27.38 79.63-18.25 18.53-43.62 27.85-76 27.85Zm-225.42 0c-32.4 0-57.16-9.42-74.51-28.35-17.15-19.03-26.07-46.18-26.87-81.64h69.79c.4 31.36 11.43 47.08 33.1 47.08 11.02 0 18.84-3.5 23.25-10.42 4.52-6.9 6.72-17.93 6.72-33.05 0-12.02-2.9-22.04-8.72-29.95a73.2 73.2 0 0 0-29.48-21.14L558.53 750c-23.07-11.02-39.81-24.04-50.14-39.27-10.03-15.13-15.04-36.36-15.04-63.5 0-30.36 8.82-55 26.37-73.94 18.05-18.93 42.62-28.34 74-28.34 30.29 0 53.75 9.31 70.2 27.84 17.05 18.64 25.77 45.28 26.47 80.14h-67.18c.4-11.4-1.9-22.72-6.72-33.06-3.81-7.6-11.23-11.41-22.26-11.41-19.66 0-29.49 11.71-29.49 35.05 0 11.83 2.41 21.04 7.22 28.05A65.18 65.18 0 0 0 597.33 689l24.77 10.92c25.57 11.72 44.02 26.05 55.36 43.38 11.33 17.23 17.04 40.27 17.04 69.12 0 34.56-9.12 61.1-27.37 79.63-18.25 18.53-43.62 27.85-76.01 27.85Zm-234.75 0c-31.7 0-56.86-8.62-75.51-25.85-18.65-17.12-27.88-42.87-27.88-76.93V648.83c0-33.85 9.83-59.5 29.48-77.13 19.96-17.43 46.13-26.24 78.52-26.24 31.39 0 56.15 9.01 74.5 26.84 18.56 17.93 27.88 44.58 27.88 80.14v13.32h-73.9v-12.92c0-13.72-3.01-23.84-8.83-30.45a26.46 26.46 0 0 0-21.66-10.32c-12.03 0-20.55 4.1-25.37 12.42a79.04 79.04 0 0 0-6.72 36.66v146.26c0 30.55 10.74 46.08 32.1 46.38 10.02 0 17.54-3.61 22.76-10.82a51.74 51.74 0 0 0 7.72-30.46V801.6h73.9v11.42c0 23.74-4.61 43.57-13.94 59.4a88.8 88.8 0 0 1-38.2 35.66 121.46 121.46 0 0 1-54.85 11.82Z"/>
    </symbol>
    <!-- javascript -->
    <symbol id="javascript"
        xmlns="http://www.w3.org/2000/svg" viewBox="0 0 1052 1052">
        <path fill="#f0db4f" d="M0 0h1052v1052H0z"/>
        <path d="M965.9 801.1c-7.7-48-39-88.3-131.7-125.9-32.2-14.8-68.1-25.399-78.8-49.8-3.8-14.2-4.3-22.2-1.9-30.8 6.9-27.9 40.2-36.6 66.6-28.6 17 5.7 33.1 18.801 42.8 39.7 45.4-29.399 45.3-29.2 77-49.399-11.6-18-17.8-26.301-25.4-34-27.3-30.5-64.5-46.2-124-45-10.3 1.3-20.699 2.699-31 4-29.699 7.5-58 23.1-74.6 44-49.8 56.5-35.6 155.399 25 196.1 59.7 44.8 147.4 55 158.6 96.9 10.9 51.3-37.699 67.899-86 62-35.6-7.4-55.399-25.5-76.8-58.4-39.399 22.8-39.399 22.8-79.899 46.1 9.6 21 19.699 30.5 35.8 48.7 76.2 77.3 266.899 73.5 301.1-43.5 1.399-4.001 10.6-30.801 3.199-72.101zm-394-317.6h-98.4c0 85-.399 169.4-.399 254.4 0 54.1 2.8 103.7-6 118.9-14.4 29.899-51.7 26.2-68.7 20.399-17.3-8.5-26.1-20.6-36.3-37.699-2.8-4.9-4.9-8.7-5.601-9-26.699 16.3-53.3 32.699-80 49 13.301 27.3 32.9 51 58 66.399 37.5 22.5 87.9 29.4 140.601 17.3 34.3-10 63.899-30.699 79.399-62.199 22.4-41.3 17.6-91.3 17.4-146.6.5-90.2 0-180.4 0-270.9z" fill="#323330"/>
    </symbol>
    <!-- react -->
    <symbol id="react" viewBox="0 0 569 512" version="1.1"
        xmlns="http://www.w3.org/2000/svg"
        xmlns:xlink="http://www.w3.org/1999/xlink">
        <g fill="none" fill-rule="evenodd">
            <g transform="translate(-227, -256)" fill="#58C4DC" fill-rule="nonzero">
                <g transform="translate(227, 256)">
                    <path d="M285.5,201 C255.400481,201 231,225.400481 231,255.5 C231,285.599519 255.400481,310 285.5,310 C315.599519,310 340,285.599519 340,255.5 C340,225.400481 315.599519,201 285.5,201" id="Path"></path>
                    <path d="M568.959856,255.99437 C568.959856,213.207656 529.337802,175.68144 466.251623,150.985214 C467.094645,145.423543 467.85738,139.922107 468.399323,134.521063 C474.621631,73.0415145 459.808523,28.6686204 426.709856,9.5541429 C389.677085,-11.8291748 337.36955,3.69129898 284.479928,46.0162134 C231.590306,3.69129898 179.282771,-11.8291748 142.25,9.5541429 C109.151333,28.6686204 94.3382249,73.0415145 100.560533,134.521063 C101.102476,139.922107 101.845139,145.443621 102.708233,151.02537 C97.4493791,153.033193 92.2908847,155.161486 87.3331099,157.39017 C31.0111824,182.708821 0,217.765415 0,255.99437 C0,298.781084 39.6220545,336.307301 102.708233,361.003527 C101.845139,366.565197 101.102476,372.066633 100.560533,377.467678 C94.3382249,438.947226 109.151333,483.32012 142.25,502.434597 C153.629683,508.887578 166.52439,512.186771 179.603923,511.991836 C210.956328,511.991836 247.567589,495.487529 284.479928,465.972527 C321.372196,495.487529 358.003528,511.991836 389.396077,511.991836 C402.475265,512.183856 415.36922,508.884856 426.75,502.434597 C459.848667,483.32012 474.661775,438.947226 468.439467,377.467678 C467.897524,372.066633 467.134789,366.565197 466.291767,361.003527 C529.377946,336.347457 569,298.761006 569,255.99437 M389.155214,27.1025182 C397.565154,26.899606 405.877839,28.9368502 413.241569,33.0055186 C436.223966,46.2772304 446.540955,82.2775015 441.522965,131.770345 C441.181741,135.143488 440.780302,138.556788 440.298575,141.990165 C414.066922,134.08804 387.205771,128.452154 360.010724,125.144528 C343.525021,103.224055 325.192524,82.7564475 305.214266,63.9661533 C336.586743,39.7116483 366.032313,27.1025182 389.135142,27.1025182 M378.356498,310.205598 C368.204912,327.830733 357.150626,344.919965 345.237759,361.405091 C325.045049,363.479997 304.758818,364.51205 284.459856,364.497299 C264.167589,364.51136 243.888075,363.479308 223.702025,361.405091 C211.820914,344.919381 200.80007,327.83006 190.683646,310.205598 C180.532593,292.629285 171.306974,274.534187 163.044553,255.99437 C171.306974,237.454554 180.532593,219.359455 190.683646,201.783142 C200.784121,184.229367 211.770999,167.201087 223.601665,150.764353 C243.824636,148.63809 264.145559,147.579168 284.479928,147.591877 C304.772146,147.579725 325.051559,148.611772 345.237759,150.68404 C357.109048,167.14607 368.136094,184.201112 378.27621,201.783142 C388.419418,219.363718 397.644825,237.458403 405.915303,255.99437 C397.644825,274.530337 388.419418,292.625022 378.27621,310.205598 M419.724813,290.127366 C426.09516,307.503536 431.324985,325.277083 435.380944,343.334682 C417.779633,348.823635 399.836793,353.149774 381.668372,356.285142 C388.573127,345.871232 395.263781,335.035679 401.740334,323.778483 C408.143291,312.655143 414.144807,301.431411 419.805101,290.207679 M246.363271,390.377981 C258.848032,391.140954 271.593728,391.582675 284.5,391.582675 C297.406272,391.582675 310.232256,391.140954 322.737089,390.377981 C310.880643,404.583418 298.10766,417.997563 284.5,430.534446 C270.921643,417.999548 258.18192,404.585125 246.363271,390.377981 Z M187.311556,356.244986 C169.137286,353.123646 151.187726,348.810918 133.578912,343.334682 C137.618549,325.305649 142.828222,307.559058 149.174827,290.207679 C154.754833,301.431411 160.736278,312.655143 167.239594,323.778483 C173.74291,334.901824 180.467017,345.864539 187.311556,356.285142 M149.174827,221.760984 C142.850954,204.473938 137.654787,186.794745 133.619056,168.834762 C151.18418,163.352378 169.085653,159.013101 187.211197,155.844146 C180.346585,166.224592 173.622478,176.986525 167.139234,188.210257 C160.65599,199.433989 154.734761,210.517173 149.074467,221.760984 M322.616657,121.590681 C310.131896,120.827708 297.3862,120.385987 284.379568,120.385987 C271.479987,120.385987 258.767744,120.787552 246.242839,121.590681 C258.061488,107.383537 270.801211,93.9691137 284.379568,81.4342157 C297.99241,93.9658277 310.765727,107.380324 322.616657,121.590681 Z M401.70019,188.210257 C395.196875,176.939676 388.472767,166.09743 381.527868,155.68352 C399.744224,158.819049 417.734224,163.151949 435.380944,168.654058 C431.331963,186.680673 426.122466,204.426664 419.785029,221.781062 C414.205023,210.55733 408.203506,199.333598 401.720262,188.230335 M127.517179,131.790423 C122.438973,82.3176579 132.816178,46.2973086 155.778503,33.0255968 C163.144699,28.9632474 171.455651,26.9264282 179.864858,27.1225964 C202.967687,27.1225964 232.413257,39.7317265 263.785734,63.9862316 C243.794133,82.7898734 225.448298,103.270812 208.949132,125.204763 C181.761691,128.528025 154.90355,134.14313 128.661281,141.990165 C128.199626,138.556788 127.778115,135.163566 127.456963,131.790423 M98.4529773,182.106474 C101.54406,180.767925 104.695358,179.429376 107.906872,178.090828 C114.220532,204.735668 122.781793,230.7969 133.498624,255.99437 C122.761529,281.241316 114.193296,307.357063 107.8868,334.058539 C56.7434387,313.076786 27.0971497,284.003505 27.0971497,255.99437 C27.0971497,229.450947 53.1907013,202.526037 98.4529773,182.106474 Z M155.778503,478.963143 C132.816178,465.691432 122.438973,429.671082 127.517179,380.198317 C127.838331,376.825174 128.259842,373.431953 128.721497,369.978497 C154.953686,377.878517 181.814655,383.514365 209.009348,386.824134 C225.500295,408.752719 243.832321,429.233234 263.805806,448.042665 C220.069,481.834331 180.105722,492.97775 155.838719,478.963143 M441.502893,380.198317 C446.520883,429.691161 436.203894,465.691432 413.221497,478.963143 C388.974566,493.017906 348.991216,481.834331 305.274481,448.042665 C325.241364,429.232737 343.566681,408.752215 360.050868,386.824134 C387.245915,383.516508 414.107066,377.880622 440.338719,369.978497 C440.820446,373.431953 441.221885,376.825174 441.563109,380.198317 M461.193488,334.018382 C454.869166,307.332523 446.294494,281.231049 435.561592,255.99437 C446.289797,230.744081 454.857778,204.629101 461.173416,177.930202 C512.216417,198.911955 541.942994,227.985236 541.942994,255.99437 C541.942994,284.003505 512.296705,313.076786 461.153344,334.058539" id="Shape"></path>
                </g>
            </g>
        </g>
    </symbol>
    <!-- tailwind -->
    <symbol id="tailwind"
        xmlns="http://www.w3.org/2000/svg" fill="none" viewBox="0 0 54 33">
        <g clip-path="url(#a)">
            <path fill="#38bdf8" fill-rule="evenodd" d="M27 0c-7.2 0-11.7 3.6-13.5 10.8 2.7-3.6 5.85-4.95 9.45-4.05 2.054.513 3.522 2.004 5.147 3.653C30.744 13.09 33.808 16.2 40.5 16.2c7.2 0 11.7-3.6 13.5-10.8-2.7 3.6-5.85 4.95-9.45 4.05-2.054-.513-3.522-2.004-5.147-3.653C36.756 3.11 33.692 0 27 0zM13.5 16.2C6.3 16.2 1.8 19.8 0 27c2.7-3.6 5.85-4.95 9.45-4.05 2.054.514 3.522 2.004 5.147 3.653C17.244 29.29 20.308 32.4 27 32.4c7.2 0 11.7-3.6 13.5-10.8-2.7 3.6-5.85 4.95-9.45 4.05-2.054-.513-3.522-2.004-5.147-3.653C23.256 19.31 20.192 16.2 13.5 16.2z" clip-rule="evenodd"/>
        </g>
        <defs>
            <clipPath id="a">
                <path fill="#fff" d="M0 0h54v32.4H0z"/>
            </clipPath>
        </defs>
    </symbol>
    <!-- astro -->
    <symbol id="astro" viewBox="0 0 256 366"
        xmlns="http://www.w3.org/2000/svg" preserveAspectRatio="xMidYMid">
        <path fill="#555555" d="M182.022 9.147c2.982 3.702 4.502 8.697 7.543 18.687L256 246.074a276.467 276.467 0 0 0-79.426-26.891L133.318 73.008a5.63 5.63 0 0 0-10.802.017L79.784 219.11A276.453 276.453 0 0 0 0 246.04L66.76 27.783c3.051-9.972 4.577-14.959 7.559-18.654a24.541 24.541 0 0 1 9.946-7.358C88.67 0 93.885 0 104.314 0h47.683c10.443 0 15.664 0 20.074 1.774a24.545 24.545 0 0 1 9.95 7.373Z"/>
        <path fill="#FF5D01" d="M189.972 256.46c-10.952 9.364-32.812 15.751-57.992 15.751-30.904 0-56.807-9.621-63.68-22.56-2.458 7.415-3.009 15.903-3.009 21.324 0 0-1.619 26.623 16.898 45.14 0-9.615 7.795-17.41 17.41-17.41 16.48 0 16.46 14.378 16.446 26.043l-.001 1.041c0 17.705 10.82 32.883 26.21 39.28a35.685 35.685 0 0 1-3.588-15.647c0-16.886 9.913-23.173 21.435-30.48 9.167-5.814 19.353-12.274 26.372-25.232a47.588 47.588 0 0 0 5.742-22.735c0-5.06-.786-9.938-2.243-14.516Z"/>
    </symbol>
    <!-- git -->
    <symbol id="git"
        xmlns="http://www.w3.org/2000/svg" preserveAspectRatio="xMidYMid" viewBox="0 0 256 256">
        <path d="M251.17 116.6 139.4 4.82a16.49 16.49 0 0 0-23.31 0l-23.21 23.2 29.44 29.45a19.57 19.57 0 0 1 24.8 24.96l28.37 28.38a19.61 19.61 0 1 1-11.75 11.06L137.28 95.4v69.64a19.62 19.62 0 1 1-16.13-.57V94.2a19.61 19.61 0 0 1-10.65-25.73L81.46 39.44 4.83 116.08a16.49 16.49 0 0 0 0 23.32L116.6 251.17a16.49 16.49 0 0 0 23.32 0l111.25-111.25a16.5 16.5 0 0 0 0-23.33" fill="#DE4C36"/>
    </symbol>
    <!-- GitHub -->
    <symbol id="GitHub" viewBox="0 0 1024 1024" fill="currentColor"
        xmlns="http://www.w3.org/2000/svg">
        <path fill="currentColor" fill-rule="evenodd" clip-rule="evenodd" d="M8 0C3.58 0 0 3.58 0 8C0 11.54 2.29 14.53 5.47 15.59C5.87 15.66 6.02 15.42 6.02 15.21C6.02 15.02 6.01 14.39 6.01 13.72C4 14.09 3.48 13.23 3.32 12.78C3.23 12.55 2.84 11.84 2.5 11.65C2.22 11.5 1.82 11.13 2.49 11.12C3.12 11.11 3.57 11.7 3.72 11.94C4.44 13.15 5.59 12.81 6.05 12.6C6.12 12.08 6.33 11.73 6.56 11.53C4.78 11.33 2.92 10.64 2.92 7.58C2.92 6.71 3.23 5.99 3.74 5.43C3.66 5.23 3.38 4.41 3.82 3.31C3.82 3.31 4.49 3.1 6.02 4.13C6.66 3.95 7.34 3.86 8.02 3.86C8.7 3.86 9.38 3.95 10.02 4.13C11.55 3.09 12.22 3.31 12.22 3.31C12.66 4.41 12.38 5.23 12.3 5.43C12.81 5.99 13.12 6.7 13.12 7.58C13.12 10.65 11.25 11.33 9.47 11.53C9.76 11.78 10.01 12.26 10.01 13.01C10.01 14.08 10 14.94 10 15.21C10 15.42 10.15 15.67 10.55 15.59C13.71 14.53 16 11.53 16 8C16 3.58 12.42 0 8 0Z" transform="scale(64)" fill="#ffff"/>
    </symbol>
    <!-- vscode -->

    <symbol id="vscode"
        xmlns="http://www.w3.org/2000/svg" fill="none" viewBox="0 0 100 100">
        <mask id="a" width="100" height="100" x="0" y="0" mask-type="alpha" maskUnits="userSpaceOnUse">
            <path fill="#fff" fill-rule="evenodd" d="M70.912 99.317a6.223 6.223 0 0 0 4.96-.19l20.589-9.907A6.25 6.25 0 0 0 100 83.587V16.413a6.25 6.25 0 0 0-3.54-5.632L75.874.874a6.226 6.226 0 0 0-7.104 1.21L29.355 38.04 12.187 25.01a4.162 4.162 0 0 0-5.318.236l-5.506 5.009a4.168 4.168 0 0 0-.004 6.162L16.247 50 1.36 63.583a4.168 4.168 0 0 0 .004 6.162l5.506 5.01a4.162 4.162 0 0 0 5.318.236l17.168-13.032L68.77 97.917a6.217 6.217 0 0 0 2.143 1.4ZM75.015 27.3 45.11 50l29.906 22.701V27.3Z" clip-rule="evenodd"/>
        </mask>
        <g mask="url(#a)">
            <path fill="#0065A9" d="M96.461 10.796 75.857.876a6.23 6.23 0 0 0-7.107 1.207l-67.451 61.5a4.167 4.167 0 0 0 .004 6.162l5.51 5.009a4.167 4.167 0 0 0 5.32.236l81.228-61.62c2.725-2.067 6.639-.124 6.639 3.297v-.24a6.25 6.25 0 0 0-3.539-5.63Z"/>
            <g filter="url(#b)">
                <path fill="#007ACC" d="m96.461 89.204-20.604 9.92a6.229 6.229 0 0 1-7.107-1.207l-67.451-61.5a4.167 4.167 0 0 1 .004-6.162l5.51-5.009a4.167 4.167 0 0 1 5.32-.236l81.228 61.62c2.725 2.067 6.639.124 6.639-3.297v.24a6.25 6.25 0 0 1-3.539 5.63Z"/>
            </g>
            <g filter="url(#c)">
                <path fill="#1F9CF0" d="M75.858 99.126a6.232 6.232 0 0 1-7.108-1.21c2.306 2.307 6.25.674 6.25-2.588V4.672c0-3.262-3.944-4.895-6.25-2.589a6.232 6.232 0 0 1 7.108-1.21l20.6 9.908A6.25 6.25 0 0 1 100 16.413v67.174a6.25 6.25 0 0 1-3.541 5.633l-20.601 9.906Z"/>
            </g>
            <path fill="url(#d)" fill-rule="evenodd" d="M70.851 99.317a6.224 6.224 0 0 0 4.96-.19L96.4 89.22a6.25 6.25 0 0 0 3.54-5.633V16.413a6.25 6.25 0 0 0-3.54-5.632L75.812.874a6.226 6.226 0 0 0-7.104 1.21L29.294 38.04 12.126 25.01a4.162 4.162 0 0 0-5.317.236l-5.507 5.009a4.168 4.168 0 0 0-.004 6.162L16.186 50 1.298 63.583a4.168 4.168 0 0 0 .004 6.162l5.507 5.009a4.162 4.162 0 0 0 5.317.236L29.294 61.96l39.414 35.958a6.218 6.218 0 0 0 2.143 1.4ZM74.954 27.3 45.048 50l29.906 22.701V27.3Z" clip-rule="evenodd" opacity=".25" style="mix-blend-mode:overlay"/>
        </g>
        <defs>
            <filter id="b" width="116.727" height="92.246" x="-8.394" y="15.829" color-interpolation-filters="sRGB" filterUnits="userSpaceOnUse">
                <feFlood flood-opacity="0" result="BackgroundImageFix"/>
                <feColorMatrix in="SourceAlpha" values="0 0 0 0 0 0 0 0 0 0 0 0 0 0 0 0 0 0 127 0"/>
                <feOffset/>
                <feGaussianBlur stdDeviation="4.167"/>
                <feColorMatrix values="0 0 0 0 0 0 0 0 0 0 0 0 0 0 0 0 0 0 0.25 0"/>
                <feBlend in2="BackgroundImageFix" mode="overlay" result="effect1_dropShadow"/>
                <feBlend in="SourceGraphic" in2="effect1_dropShadow" result="shape"/>
            </filter>
            <filter id="c" width="47.917" height="116.151" x="60.417" y="-8.076" color-interpolation-filters="sRGB" filterUnits="userSpaceOnUse">
                <feFlood flood-opacity="0" result="BackgroundImageFix"/>
                <feColorMatrix in="SourceAlpha" values="0 0 0 0 0 0 0 0 0 0 0 0 0 0 0 0 0 0 127 0"/>
                <feOffset/>
                <feGaussianBlur stdDeviation="4.167"/>
                <feColorMatrix values="0 0 0 0 0 0 0 0 0 0 0 0 0 0 0 0 0 0 0.25 0"/>
                <feBlend in2="BackgroundImageFix" mode="overlay" result="effect1_dropShadow"/>
                <feBlend in="SourceGraphic" in2="effect1_dropShadow" result="shape"/>
            </filter>
            <linearGradient id="d" x1="49.939" x2="49.939" y1=".258" y2="99.742" gradientUnits="userSpaceOnUse">
                <stop stop-color="#fff"/>
                <stop offset="1" stop-color="#fff" stop-opacity="0"/>
            </linearGradient>
        </defs>
    </symbol>
    <!-- ubuntu -->
    <symbol id="ubuntu"
        xmlns="http://www.w3.org/2000/svg"
        xmlns:xlink="http://www.w3.org/1999/xlink" viewBox="0 0 100 100">
        <circle cx="50" cy="50" r="45" fill="#f47421"/>
        <circle cx="50" cy="50" r="21.8" fill="none" stroke="#fff" stroke-width="8.6"/>
        <g id="a">
            <circle cx="19.4" cy="50" r="8.4" fill="#f47421"/>
            <path stroke="#f47421" stroke-width="3.2" d="M67 50h10"/>
            <circle cx="19.4" cy="50" r="6" fill="#fff"/>
        </g>
        <use xlink:href="#a" transform="rotate(120 50 50)"/>
        <use xlink:href="#a" transform="rotate(240 50 50)"/>
    </symbol>
    <!-- vite -->
    <symbol id="vite" viewBox="0 0 410 404" fill="none"
        xmlns="http://www.w3.org/2000/svg">
        <path d="M399.641 59.5246L215.643 388.545C211.844 395.338 202.084 395.378 198.228 388.618L10.5817 59.5563C6.38087 52.1896 12.6802 43.2665 21.0281 44.7586L205.223 77.6824C206.398 77.8924 207.601 77.8904 208.776 77.6763L389.119 44.8058C397.439 43.2894 403.768 52.1434 399.641 59.5246Z" fill="url(#paint0_linear)"/>
        <path d="M292.965 1.5744L156.801 28.2552C154.563 28.6937 152.906 30.5903 152.771 32.8664L144.395 174.33C144.198 177.662 147.258 180.248 150.51 179.498L188.42 170.749C191.967 169.931 195.172 173.055 194.443 176.622L183.18 231.775C182.422 235.487 185.907 238.661 189.532 237.56L212.947 230.446C216.577 229.344 220.065 232.527 219.297 236.242L201.398 322.875C200.278 328.294 207.486 331.249 210.492 326.603L212.5 323.5L323.454 102.072C325.312 98.3645 322.108 94.137 318.036 94.9228L279.014 102.454C275.347 103.161 272.227 99.746 273.262 96.1583L298.731 7.86689C299.767 4.27314 296.636 0.855181 292.965 1.5744Z" fill="url(#paint1_linear)"/>
        <defs>
            <linearGradient id="paint0_linear" x1="6.00017" y1="32.9999" x2="235" y2="344" gradientUnits="userSpaceOnUse">
                <stop stop-color="#41D1FF"/>
                <stop offset="1" stop-color="#BD34FE"/>
            </linearGradient>
            <linearGradient id="paint1_linear" x1="194.651" y1="8.81818" x2="236.076" y2="292.989" gradientUnits="userSpaceOnUse">
                <stop stop-color="#FFEA83"/>
                <stop offset="0.0833333" stop-color="#FFDD35"/>
                <stop offset="1" stop-color="#FFA800"/>
            </linearGradient>
        </defs>
    </symbol>
    <!-- npm -->
    <symbol id="npm"
        xmlns="http://www.w3.org/2000/svg" viewBox="0 0 128 128">
        <path fill="#cb3837" d="M2 38.5h124v43.71H64v7.29H36.44v-7.29H2Zm6.89 36.43h13.78V53.07h6.89v21.86h6.89V45.79H8.89Zm34.44-29.14v36.42h13.78v-7.28h13.78V45.79Zm13.78 7.29H64v14.56h-6.89Zm20.67-7.29v29.14h13.78V53.07h6.89v21.86h6.89V53.07h6.89v21.86h6.89V45.79Z"/>
    </symbol>
    <!-- vitest -->
    <symbol id="vitest" viewBox="0 0 128 128"
        xmlns="http://www.w3.org/2000/svg">
        <path d="m96.058 40.82-30.6 44.244a2.635 2.635 0 0 1-4.339-.007 2.607 2.607 0 0 1-.451-1.601l1.225-24.428-19.772-4.192a2.628 2.628 0 0 1-1.891-1.59 2.603 2.603 0 0 1 .278-2.451l30.6-44.244a2.632 2.632 0 0 1 3.009-.998 2.621 2.621 0 0 1 1.33 1.005c.322.47.48 1.032.451 1.601l-1.224 24.428 19.77 4.192c.423.09.817.282 1.147.56a2.605 2.605 0 0 1 .467 3.48Z" fill="#FCC72B"/>
        <path d="M64.013 122.185a6.19 6.19 0 0 1-4.382-1.815L30.717 91.458a6.195 6.195 0 0 1 4.384-10.565 6.198 6.198 0 0 1 4.378 1.803l24.534 24.53 53.446-53.444a6.195 6.195 0 0 1 8.762 8.762L68.393 120.37a6.175 6.175 0 0 1-4.38 1.815Z" fill="#729B1B"/>
        <path d="M63.988 122.185c.814 0 1.62-.159 2.371-.47a6.191 6.191 0 0 0 2.01-1.345l28.914-28.912a6.193 6.193 0 0 0-.012-8.75 6.197 6.197 0 0 0-8.75-.012l-24.533 24.53L10.54 53.782a6.196 6.196 0 0 0-8.762 8.762l57.828 57.826a6.176 6.176 0 0 0 4.38 1.815Z" fill="#729B1B" fill-opacity=".5"/>
    </symbol>
    <!-- typescript -->
    <symbol id="typescript" viewBox="0 0 256 256"
        xmlns="http://www.w3.org/2000/svg" preserveAspectRatio="xMidYMid">
        <path d="M20 0h216c11.046 0 20 8.954 20 20v216c0 11.046-8.954 20-20 20H20c-11.046 0-20-8.954-20-20V20C0 8.954 8.954 0 20 0Z" fill="#3178C6"/>
        <path d="M150.518 200.475v27.62c4.492 2.302 9.805 4.028 15.938 5.179 6.133 1.151 12.597 1.726 19.393 1.726 6.622 0 12.914-.633 18.874-1.899 5.96-1.266 11.187-3.352 15.678-6.257 4.492-2.906 8.048-6.704 10.669-11.394 2.62-4.689 3.93-10.486 3.93-17.391 0-5.006-.749-9.394-2.246-13.163a30.748 30.748 0 0 0-6.479-10.055c-2.821-2.935-6.205-5.567-10.149-7.898-3.945-2.33-8.394-4.531-13.347-6.602-3.628-1.497-6.881-2.949-9.761-4.359-2.879-1.41-5.327-2.848-7.342-4.316-2.016-1.467-3.571-3.021-4.665-4.661-1.094-1.64-1.641-3.495-1.641-5.567 0-1.899.489-3.61 1.468-5.135s2.362-2.834 4.147-3.927c1.785-1.094 3.973-1.942 6.565-2.547 2.591-.604 5.471-.906 8.638-.906 2.304 0 4.737.173 7.299.518 2.563.345 5.14.877 7.732 1.597a53.669 53.669 0 0 1 7.558 2.719 41.7 41.7 0 0 1 6.781 3.797v-25.807c-4.204-1.611-8.797-2.805-13.778-3.582-4.981-.777-10.697-1.165-17.147-1.165-6.565 0-12.784.705-18.658 2.115-5.874 1.409-11.043 3.61-15.506 6.602-4.463 2.993-7.99 6.805-10.582 11.437-2.591 4.632-3.887 10.17-3.887 16.615 0 8.228 2.375 15.248 7.127 21.06 4.751 5.811 11.963 10.731 21.638 14.759a291.458 291.458 0 0 1 10.625 4.575c3.283 1.496 6.119 3.049 8.509 4.66 2.39 1.611 4.276 3.366 5.658 5.265 1.382 1.899 2.073 4.057 2.073 6.474a9.901 9.901 0 0 1-1.296 4.963c-.863 1.524-2.174 2.848-3.93 3.97-1.756 1.122-3.945 1.999-6.565 2.632-2.62.633-5.687.95-9.2.95-5.989 0-11.92-1.05-17.794-3.151-5.875-2.1-11.317-5.25-16.327-9.451Zm-46.036-68.733H140V109H41v22.742h35.345V233h28.137V131.742Z" fill="#FFF"/>
    </symbol>
    <!-- zod -->
    <symbol id="zod"
        xmlns="http://www.w3.org/2000/svg"
        xmlns:xlink="http://www.w3.org/1999/xlink" viewBox="0 0 256 203">
        <defs>
            <filter id="a" width="105.2%" height="106.5%" x="-2.2%" y="-2.8%" filterUnits="objectBoundingBox">
                <feOffset dx="1" dy="1" in="SourceAlpha" result="shadowOffsetOuter1"/>
                <feGaussianBlur in="shadowOffsetOuter1" result="shadowBlurOuter1" stdDeviation="2"/>
                <feColorMatrix in="shadowBlurOuter1" values="0 0 0 0 0 0 0 0 0 0 0 0 0 0 0 0 0 0 0.36 0"/>
            </filter>
            <path id="b" d="M200.42 0H53.63L0 53.355l121.76 146.624 9.714-10.9L252 53.857 200.42 0Zm-5.362 12.562 39.84 41.6-112.8 126.558L17 54.162l41.815-41.6h136.243Z"/>
        </defs>
        <path fill="#18253F" d="M60.816 14.033h136.278l39.933 41.69-112.989 126.554L18.957 55.724z"/>
        <path fill="#274D82" d="M151.427 152.386H98.013l-24.124-29.534 68.364-.002.002-4.19h39.078z"/>
        <path fill="#274D82" d="m225.56 43.834-147.382 85.09-19.226-24.051 114.099-65.877-2.096-3.631 30.391-17.546zM146.596 14.075 35.93 77.968 18.719 56.483l74.095-42.78z"/>
        <g transform="translate(2 1.51)">
            <use xlink:href="#b" filter="url(#a)"/>
            <use xlink:href="#b" fill="#3068B7"/>
        </g>
    </symbol>
    <!-- netlify -->
    <symbol id="netlify" viewBox="0 0 256 226"
        xmlns="http://www.w3.org/2000/svg" preserveAspectRatio="xMidYMid">
        <path fill="#05BDBA" d="M69.181 188.087h-2.417l-12.065-12.065v-2.417l18.444-18.444h12.778l1.704 1.704v12.778zM54.699 51.628v-2.417l12.065-12.065h2.417L87.625 55.59v12.778l-1.704 1.704H73.143z"/>
        <path fill="#014847" d="M160.906 149.198h-17.552l-1.466-1.466v-41.089c0-7.31-2.873-12.976-11.689-13.174-4.537-.119-9.727 0-15.274.218l-.833.852v53.173l-1.466 1.466H95.074l-1.466-1.466v-70.19l1.466-1.467h39.503c15.354 0 27.795 12.441 27.795 27.795v43.882l-1.466 1.466Z"/>
        <path fill="#05BDBA" d="M71.677 122.889H1.466L0 121.423V103.83l1.466-1.466h70.211l1.466 1.466v17.593zM254.534 122.889h-70.211l-1.466-1.466V103.83l1.466-1.466h70.211L256 103.83v17.593zM117.876 54.124V1.466L119.342 0h17.593l1.466 1.466v52.658l-1.466 1.466h-17.593zM117.876 223.787v-52.658l1.466-1.466h17.593l1.466 1.466v52.658l-1.466 1.465h-17.593z"/>
    </symbol>
    <!-- vercel -->
    <svg id="vercel" viewBox="0 0 256 222"
        xmlns="http://www.w3.org/2000/svg" preserveAspectRatio="xMidYMid">
        <path fill="currentColor" d="m128 0 128 221.705H0z"/>
    </svg>
    <!-- pnpm -->

    <symbol id="pnpm" viewBox="0 0 226 160"
        xmlns="http://www.w3.org/2000/svg" fill="none">
        <path fill="#F9AD00" d="M221.478 49.756h-48.78V.976h48.78v48.78ZM167.81 49.756h-48.781V.976h48.781v48.78ZM114.151 49.756h-48.78V.976h48.78v48.78ZM221.478 103.415h-48.78V54.634h48.78v48.781Z"/>
        <path fill="#4E4E4E" d="M167.81 103.415h-48.781V54.634h48.781v48.781ZM167.81 157.073h-48.781v-48.78h48.781v48.78ZM221.478 157.073h-48.78v-48.78h48.78v48.78ZM114.151 157.073h-48.78v-48.78h48.78v48.78ZM13.041 68.35c1.64 0 3.155.218 4.549.655 1.42.41 2.636 1.052 3.646 1.926 1.011.874 1.803 1.98 2.377 3.319.574 1.31.86 2.882.86 4.712 0 1.748-.245 3.278-.737 4.59-.492 1.31-1.188 2.417-2.09 3.318-.901.874-1.994 1.53-3.278 1.967-1.256.437-2.663.656-4.22.656-1.175 0-2.268-.178-3.278-.533v6.802c-.274.082-.71.164-1.312.246-.6.109-1.215.164-1.844.164-.6 0-1.147-.041-1.639-.123a2.742 2.742 0 0 1-1.188-.492c-.328-.246-.574-.587-.737-1.024-.164-.41-.246-.957-.246-1.64V73.226c0-.737.15-1.338.45-1.803.328-.464.765-.888 1.312-1.27.846-.546 1.898-.983 3.155-1.311 1.256-.328 2.663-.492 4.22-.492Zm.082 15.652c2.814 0 4.22-1.68 4.22-5.04 0-1.749-.354-3.046-1.065-3.893-.683-.847-1.68-1.27-2.99-1.27-.52 0-.984.068-1.394.205-.41.11-.765.246-1.065.41v9.014c.327.164.682.3 1.065.41.382.11.792.164 1.23.164Zm27.37-7.745c0-.846-.246-1.461-.737-1.844-.465-.41-1.107-.614-1.926-.614-.547 0-1.093.068-1.64.205-.518.136-.969.341-1.351.614v14.219c-.273.082-.71.164-1.312.246-.573.082-1.174.123-1.803.123-.6 0-1.147-.041-1.639-.123a2.74 2.74 0 0 1-1.188-.492 2.55 2.55 0 0 1-.778-.983c-.164-.437-.246-.997-.246-1.68V73.635c0-.738.15-1.339.45-1.803.328-.464.765-.888 1.312-1.27.928-.656 2.09-1.188 3.483-1.598 1.42-.41 2.99-.615 4.712-.615 3.087 0 5.463.683 7.13 2.049 1.666 1.339 2.5 3.21 2.5 5.614v12.825c-.274.082-.711.164-1.312.246-.574.082-1.175.123-1.803.123-.601 0-1.147-.041-1.639-.123a2.74 2.74 0 0 1-1.188-.492 2.55 2.55 0 0 1-.779-.983c-.164-.437-.246-.997-.246-1.68v-9.67ZM60.9 68.35c1.639 0 3.155.219 4.548.656 1.42.41 2.636 1.052 3.647 1.926 1.01.874 1.802 1.98 2.376 3.319.574 1.31.86 2.882.86 4.712 0 1.748-.245 3.278-.737 4.59-.492 1.31-1.188 2.417-2.09 3.318-.901.874-1.994 1.53-3.278 1.967-1.256.437-2.663.656-4.22.656-1.175 0-2.267-.178-3.278-.533v6.802c-.273.082-.71.164-1.312.246-.6.109-1.215.164-1.843.164-.601 0-1.148-.041-1.64-.123a2.742 2.742 0 0 1-1.188-.492c-.328-.246-.573-.587-.737-1.024-.164-.41-.246-.957-.246-1.64V73.226c0-.737.15-1.338.45-1.803.328-.464.765-.888 1.312-1.27.847-.546 1.898-.983 3.155-1.311 1.257-.328 2.663-.492 4.22-.492Zm.081 15.653c2.814 0 4.22-1.68 4.22-5.04 0-1.749-.354-3.046-1.064-3.893-.683-.847-1.68-1.27-2.992-1.27-.519 0-.983.068-1.393.205-.41.11-.765.246-1.065.41v9.014c.328.164.683.3 1.065.41.383.11.792.164 1.23.164Zm24.297-15.653c1.12 0 2.213.164 3.278.492 1.093.3 2.035.765 2.828 1.393.82-.546 1.734-.997 2.745-1.352 1.038-.355 2.281-.533 3.729-.533 1.038 0 2.049.137 3.032.41 1.011.273 1.899.71 2.663 1.311.793.574 1.421 1.352 1.885 2.336.465.956.697 2.13.697 3.524v12.907c-.273.082-.71.164-1.311.246-.574.082-1.175.123-1.803.123a10 10 0 0 1-1.639-.123 2.74 2.74 0 0 1-1.189-.492 2.554 2.554 0 0 1-.778-.983c-.164-.437-.246-.997-.246-1.68v-9.793c0-.82-.232-1.407-.697-1.762-.464-.383-1.092-.574-1.884-.574-.383 0-.793.095-1.23.287-.437.164-.764.341-.983.532.027.11.04.219.04.328v13.891c-.3.082-.75.164-1.351.246-.574.082-1.161.123-1.762.123s-1.148-.041-1.64-.123a2.74 2.74 0 0 1-1.188-.492 2.55 2.55 0 0 1-.778-.983c-.164-.437-.246-.997-.246-1.68v-9.793c0-.82-.26-1.407-.779-1.762-.491-.383-1.092-.574-1.802-.574-.492 0-.915.082-1.27.246a7.18 7.18 0 0 0-.902.41v14.382c-.273.082-.71.164-1.311.246a12.74 12.74 0 0 1-1.803.123c-.601 0-1.148-.041-1.64-.123a2.74 2.74 0 0 1-1.188-.492 2.55 2.55 0 0 1-.778-.983c-.164-.437-.246-.997-.246-1.68V73.553c0-.737.15-1.325.45-1.762.329-.437.766-.847 1.312-1.23.929-.655 2.076-1.188 3.442-1.597a15.312 15.312 0 0 1 4.343-.615Z"/>
    </symbol>

    <!-- markdown -->

    <symbol id="markdown"
        xmlns="http://www.w3.org/2000/svg" viewBox="0 0 208 128">
        <rect width="198" height="118" x="5" y="5" ry="10" stroke="#000" stroke-width="10" fill="#ffffff" />
        <path d="M30 98V30h20l20 25 20-25h20v68H90V59L70 84 50 59v39zm125 0l-30-33h20V30h20v35h20z"/>
    </symbol>
    <!-- bun -->
    <symbol id="bun"
        xmlns="http://www.w3.org/2000/svg" viewBox="0 0 80 70">
        <path d="M71.09 20.74c-.16-.17-.33-.34-.5-.5s-.33-.34-.5-.5-.33-.34-.5-.5-.33-.34-.5-.5-.33-.34-.5-.5-.33-.34-.5-.5-.33-.34-.5-.5A26.46 26.46 0 0 1 75.5 35.7c0 16.57-16.82 30.05-37.5 30.05-11.58 0-21.94-4.23-28.83-10.86l.5.5.5.5.5.5.5.5.5.5.5.5.5.5C19.55 65.3 30.14 69.75 42 69.75c20.68 0 37.5-13.48 37.5-30 0-7.06-3.04-13.75-8.41-19.01Z"/>
        <path d="M73 35.7c0 15.21-15.67 27.54-35 27.54S3 50.91 3 35.7C3 26.27 9 17.94 18.22 13S33.18 3 38 3s8.94 4.13 19.78 10C67 17.94 73 26.27 73 35.7Z" style="fill:#fbf0df"/>
        <path data-name="Bottom Shadow" d="M73 35.7a21.67 21.67 0 0 0-.8-5.78c-2.73 33.3-43.35 34.9-59.32 24.94A40 40 0 0 0 38 63.24c19.3 0 35-12.35 35-27.54Z" style="fill:#f6dece"/>
        <path data-name="Light Shine" d="M24.53 11.17C29 8.49 34.94 3.46 40.78 3.45A9.29 9.29 0 0 0 38 3c-2.42 0-5 1.25-8.25 3.13-1.13.66-2.3 1.39-3.54 2.15-2.33 1.44-5 3.07-8 4.7C8.69 18.13 3 26.62 3 35.7v1.19c6.06-21.41 17.07-23.04 21.53-25.72Z" style="fill:#fffefc"/>
        <path d="M35.12 5.53A16.41 16.41 0 0 1 29.49 18c-.28.25-.06.73.3.59 3.37-1.31 7.92-5.23 6-13.14-.08-.45-.67-.33-.67.08Zm2.27 0A16.24 16.24 0 0 1 39 19c-.12.35.31.65.55.36 2.19-2.8 4.1-8.36-1.62-14.36-.29-.26-.74.14-.54.49Zm2.76-.17A16.42 16.42 0 0 1 47 17.12a.33.33 0 0 0 .65.11c.92-3.49.4-9.44-7.17-12.53-.4-.16-.66.38-.33.62Zm-18.46 10.4a16.94 16.94 0 0 0 10.47-9c.18-.36.75-.22.66.18-1.73 8-7.52 9.67-11.12 9.45-.38.01-.37-.52-.01-.63Z" style="fill:#ccbea7;fill-rule:evenodd"/>
        <path d="M38 65.75C17.32 65.75.5 52.27.5 35.7c0-10 6.18-19.33 16.53-24.92 3-1.6 5.57-3.21 7.86-4.62 1.26-.78 2.45-1.51 3.6-2.19C32 1.89 35 .5 38 .5s5.62 1.2 8.9 3.14c1 .57 2 1.19 3.07 1.87 2.49 1.54 5.3 3.28 9 5.27C69.32 16.37 75.5 25.69 75.5 35.7c0 16.57-16.82 30.05-37.5 30.05ZM38 3c-2.42 0-5 1.25-8.25 3.13-1.13.66-2.3 1.39-3.54 2.15-2.33 1.44-5 3.07-8 4.7C8.69 18.13 3 26.62 3 35.7c0 15.19 15.7 27.55 35 27.55S73 50.89 73 35.7c0-9.08-5.69-17.57-15.22-22.7-3.78-2-6.73-3.88-9.12-5.36-1.09-.67-2.09-1.29-3-1.84C42.63 4 40.42 3 38 3Z"/>
        <g>
            <path d="M45.05 43a8.93 8.93 0 0 1-2.92 4.71 6.81 6.81 0 0 1-4 1.88A6.84 6.84 0 0 1 34 47.71 8.93 8.93 0 0 1 31.12 43a.72.72 0 0 1 .8-.81h12.34a.72.72 0 0 1 .79.81Z" style="fill:#b71422" data-name="Background"/>
            <path data-name="Background" d="M34 47.79a6.91 6.91 0 0 0 4.12 1.9 6.91 6.91 0 0 0 4.11-1.9 10.63 10.63 0 0 0 1-1.07 6.83 6.83 0 0 0-4.9-2.31 6.15 6.15 0 0 0-5 2.78c.23.21.43.41.67.6Z" style="fill:#ff6164"/>
            <path data-name="Outline" d="M34.16 47a5.36 5.36 0 0 1 4.19-2.08 6 6 0 0 1 4 1.69c.23-.25.45-.51.66-.77a7 7 0 0 0-4.71-1.93 6.36 6.36 0 0 0-4.89 2.36 9.53 9.53 0 0 0 .75.73Z"/>
            <path data-name="Outline" d="M38.09 50.19a7.42 7.42 0 0 1-4.45-2 9.52 9.52 0 0 1-3.11-5.05 1.2 1.2 0 0 1 .26-1 1.41 1.41 0 0 1 1.13-.51h12.34a1.44 1.44 0 0 1 1.13.51 1.19 1.19 0 0 1 .25 1 9.52 9.52 0 0 1-3.11 5.05 7.42 7.42 0 0 1-4.44 2Zm-6.17-7.4c-.16 0-.2.07-.21.09a8.29 8.29 0 0 0 2.73 4.37A6.23 6.23 0 0 0 38.09 49a6.28 6.28 0 0 0 3.65-1.73 8.3 8.3 0 0 0 2.72-4.37.21.21 0 0 0-.2-.09Z"/>
        </g>
        <g>
            <ellipse data-name="Right Blush" cx="53.22" cy="40.18" rx="5.85" ry="3.44" style="fill:#febbd0"/>
            <ellipse data-name="Left Bluch" cx="22.95" cy="40.18" rx="5.85" ry="3.44" style="fill:#febbd0"/>
            <path d="M25.7 38.8a5.51 5.51 0 1 0-5.5-5.51 5.51 5.51 0 0 0 5.5 5.51Zm24.77 0A5.51 5.51 0 1 0 45 33.29a5.5 5.5 0 0 0 5.47 5.51Z" style="fill-rule:evenodd"/>
            <path d="M24 33.64a2.07 2.07 0 1 0-2.06-2.07A2.07 2.07 0 0 0 24 33.64Zm24.77 0a2.07 2.07 0 1 0-2.06-2.07 2.07 2.07 0 0 0 2.04 2.07Z" style="fill:#fff;fill-rule:evenodd"/>
        </g>
    </symbol>
    <!-- nextjs -->
    <symbol id="nextjs" viewBox="0 0 180 180" fill="none"
        xmlns="http://www.w3.org/2000/svg">
        <mask id="mask0_408_139" style="mask-type:alpha" maskUnits="userSpaceOnUse" x="0" y="0" width="180" height="180">
            <circle cx="90" cy="90" r="90" fill="black"/>
        </mask>
        <g mask="url(#mask0_408_139)">
            <circle cx="90" cy="90" r="87" fill="black" stroke="white" stroke-width="6"/>
            <path d="M149.508 157.52L69.142 54H54V125.97H66.1136V69.3836L139.999 164.845C143.333 162.614 146.509 160.165 149.508 157.52Z" fill="url(#paint0_linear_408_139)"/>
            <rect x="115" y="54" width="12" height="72" fill="url(#paint1_linear_408_139)"/>
        </g>
        <defs>
            <linearGradient id="paint0_linear_408_139" x1="109" y1="116.5" x2="144.5" y2="160.5" gradientUnits="userSpaceOnUse">
                <stop stop-color="white"/>
                <stop offset="1" stop-color="white" stop-opacity="0"/>
            </linearGradient>
            <linearGradient id="paint1_linear_408_139" x1="121" y1="54" x2="120.799" y2="106.875" gradientUnits="userSpaceOnUse">
                <stop stop-color="white"/>
                <stop offset="1" stop-color="white" stop-opacity="0"/>
            </linearGradient>
        </defs>
    </symbol>


</svg>