<svg width="128" height="128" viewBox="0 0 128 128" fill="none" xmlns="http://www.w3.org/2000/svg">
<path d="M42.5 32.1524L18 60.6524L37 92.1524C37 92.1524 38.5 103.652 42.5 88.1524C46.5 72.6525 25 60.6524 25 60.6524C25 60.6524 44.5 50.6524 46.5 37.6524C48.5 24.6524 42.5 32.1524 42.5 32.1524Z" fill="#F26234"/>
<path d="M48.5 95.1525L67.5 32.1524H74L58 95.1525H48.5Z" fill="#F26234"/>
<path d="M111 64.1525C111 64.1525 85 23.6525 86.5 33.1525C88 42.6525 79.5 33.1525 79.5 41.1525C79.5 49.1525 98 64.1525 98 64.1525C98 64.1525 84.5 84.1524 74 88.1524C63.5 92.1524 77.3521 92.4188 79.5 95.1525L111 64.1525Z" fill="#F26234"/>
<path d="M42.5 32.1524L18 60.6524L37 92.1524C37 92.1524 38.5 103.652 42.5 88.1524C46.5 72.6525 25 60.6524 25 60.6524C25 60.6524 44.5 50.6524 46.5 37.6524C48.5 24.6524 42.5 32.1524 42.5 32.1524Z" stroke="black"/>
<path d="M48.5 95.1525L67.5 32.1524H74L58 95.1525H48.5Z" stroke="black"/>
<path d="M111 64.1525C111 64.1525 85 23.6525 86.5 33.1525C88 42.6525 79.5 33.1525 79.5 41.1525C79.5 49.1525 98 64.1525 98 64.1525C98 64.1525 84.5 84.1524 74 88.1524C63.5 92.1524 77.3521 92.4188 79.5 95.1525L111 64.1525Z" stroke="black"/>
</svg>
