<svg xmlns="http://www.w3.org/2000/svg" style="display: none;">
  <symbol id="brand-linkedin"
    xmlns="http://www.w3.org/2000/svg" width="24" height="24" viewBox="0 0 24 24" fill="currentColor" class="icon icon-tabler icons-tabler-filled icon-tabler-brand-linkedin">
    <path stroke="none" d="M0 0h24v24H0z" fill="none"/>
    <path d="M17 2a5 5 0 0 1 5 5v10a5 5 0 0 1 -5 5h-10a5 5 0 0 1 -5 -5v-10a5 5 0 0 1 5 -5zm-9 8a1 1 0 0 0 -1 1v5a1 1 0 0 0 2 0v-5a1 1 0 0 0 -1 -1m6 0a3 3 0 0 0 -1.168 .236l-.125 .057a1 1 0 0 0 -1.707 .707v5a1 1 0 0 0 2 0v-3a1 1 0 0 1 2 0v3a1 1 0 0 0 2 0v-3a3 3 0 0 0 -3 -3m-6 -3a1 1 0 0 0 -.993 .883l-.007 .127a1 1 0 0 0 1.993 .117l.007 -.127a1 1 0 0 0 -1 -1" />
  </symbol>
  <symbol id="brand-twitter"
    xmlns="http://www.w3.org/2000/svg" width="24" height="24" viewBox="0 0 24 24" fill="currentColor" class="icon icon-tabler icons-tabler-filled icon-tabler-brand-x">
    <path stroke="none" d="M0 0h24v24H0z" fill="none"/>
    <path d="M8.267 3a1 1 0 0 1 .73 .317l.076 .092l4.274 5.828l5.946 -5.944a1 1 0 0 1 1.497 1.32l-.083 .094l-6.163 6.162l6.262 8.54a1 1 0 0 1 -.697 1.585l-.109 .006h-4.267a1 1 0 0 1 -.73 -.317l-.076 -.092l-4.276 -5.829l-5.944 5.945a1 1 0 0 1 -1.497 -1.32l.083 -.094l6.161 -6.163l-6.26 -8.539a1 1 0 0 1 .697 -1.585l.109 -.006h4.267z" />
  </symbol>
  <symbol id="brand-github"
    xmlns="http://www.w3.org/2000/svg" width="24" height="24" viewBox="0 0 24 24" fill="currentColor" class="icon icon-tabler icons-tabler-filled icon-tabler-brand-github">
    <path stroke="none" d="M0 0h24v24H0z" fill="none"/>
    <path d="M5.315 2.1c.791 -.113 1.9 .145 3.333 .966l.272 .161l.16 .1l.397 -.083a13.3 13.3 0 0 1 4.59 -.08l.456 .08l.396 .083l.161 -.1c1.385 -.84 2.487 -1.17 3.322 -1.148l.164 .008l.147 .017l.076 .014l.05 .011l.144 .047a1 1 0 0 1 .53 .514a5.2 5.2 0 0 1 .397 2.91l-.047 .267l-.046 .196l.123 .163c.574 .795 .93 1.728 1.03 2.707l.023 .295l.007 .272c0 3.855 -1.659 5.883 -4.644 6.68l-.245 .061l-.132 .029l.014 .161l.008 .157l.004 .365l-.002 .213l-.003 3.834a1 1 0 0 1 -.883 .993l-.117 .007h-6a1 1 0 0 1 -.993 -.883l-.007 -.117v-.734c-1.818 .26 -3.03 -.424 -4.11 -1.878l-.535 -.766c-.28 -.396 -.455 -.579 -.589 -.644l-.048 -.019a1 1 0 0 1 .564 -1.918c.642 .188 1.074 .568 1.57 1.239l.538 .769c.76 1.079 1.36 1.459 2.609 1.191l.001 -.678l-.018 -.168a5.03 5.03 0 0 1 -.021 -.824l.017 -.185l.019 -.12l-.108 -.024c-2.976 -.71 -4.703 -2.573 -4.875 -6.139l-.01 -.31l-.004 -.292a5.6 5.6 0 0 1 .908 -3.051l.152 -.222l.122 -.163l-.045 -.196a5.2 5.2 0 0 1 .145 -2.642l.1 -.282l.106 -.253a1 1 0 0 1 .529 -.514l.144 -.047l.154 -.03z" />
  </symbol>
  <symbol id="brand-discord"
    xmlns="http://www.w3.org/2000/svg" width="24" height="24" viewBox="0 0 24 24" fill="currentColor" class="icon icon-tabler icons-tabler-filled icon-tabler-brand-discord">
    <path stroke="none" d="M0 0h24v24H0z" fill="none"/>
    <path d="M14.983 3l.123 .006c2.014 .214 3.527 .672 4.966 1.673a1 1 0 0 1 .371 .488c1.876 5.315 2.373 9.987 1.451 12.28c-1.003 2.005 -2.606 3.553 -4.394 3.553c-.732 0 -1.693 -.968 -2.328 -2.045a21.512 21.512 0 0 0 2.103 -.493a1 1 0 1 0 -.55 -1.924c-3.32 .95 -6.13 .95 -9.45 0a1 1 0 0 0 -.55 1.924c.717 .204 1.416 .37 2.103 .494c-.635 1.075 -1.596 2.044 -2.328 2.044c-1.788 0 -3.391 -1.548 -4.428 -3.629c-.888 -2.217 -.39 -6.89 1.485 -12.204a1 1 0 0 1 .371 -.488c1.439 -1.001 2.952 -1.459 4.966 -1.673a1 1 0 0 1 .935 .435l.063 .107l.651 1.285l.137 -.016a12.97 12.97 0 0 1 2.643 0l.134 .016l.65 -1.284a1 1 0 0 1 .754 -.54l.122 -.009zm-5.983 7a2 2 0 0 0 -1.977 1.697l-.018 .154l-.005 .149l.005 .15a2 2 0 1 0 1.995 -2.15zm6 0a2 2 0 0 0 -1.977 1.697l-.018 .154l-.005 .149l.005 .15a2 2 0 1 0 1.995 -2.15z" />
  </symbol>
</svg>
